<?xml version="1.0" standalone="no"?>
<!DOCTYPE svg PUBLIC "-//W3C//DTD SVG 20010904//EN"
 "http://www.w3.org/TR/2001/REC-SVG-20010904/DTD/svg10.dtd">
<svg version="1.0" xmlns="http://www.w3.org/2000/svg"
 width="512.000000pt" height="512.000000pt" viewBox="0 0 512.000000 512.000000"
 preserveAspectRatio="xMidYMid meet">
<metadata>
Created by potrace 1.14, written by Peter Selinger 2001-2017
</metadata>
<g transform="translate(0.000000,512.000000) scale(0.100000,-0.100000)"
fill="#000000" stroke="none">
<path d="M2368 4033 c-165 -133 -585 -473 -808 -653 -92 -74 -290 -235 -441
-357 -151 -122 -282 -235 -292 -251 -21 -37 -21 -55 -1 -98 28 -59 50 -64 264
-64 l190 0 1 -672 c0 -495 3 -682 12 -707 7 -19 24 -43 39 -54 27 -20 38 -20
1230 -18 1284 2 1231 0 1257 49 6 11 11 245 13 577 2 308 4 620 6 693 l3 132
192 0 c165 0 196 2 217 17 33 23 48 43 55 75 14 60 -13 87 -316 320 l-289 221
0 258 c0 146 -4 269 -10 284 -5 14 -22 37 -36 50 -27 25 -28 25 -230 25 l-204
0 -32 -29 c-28 -25 -33 -38 -38 -85 l-5 -57 -105 85 c-479 387 -450 366 -496
366 -39 0 -53 -9 -176 -107z m487 -398 c365 -296 368 -298 420 -291 28 3 48
14 68 36 26 29 27 34 27 145 l0 115 50 0 50 0 0 -235 c0 -160 4 -242 12 -260
7 -15 93 -89 197 -168 l184 -142 -96 -5 c-89 -5 -99 -7 -124 -33 l-28 -27 -3
-695 -2 -695 -1050 0 -1050 0 -2 696 -3 696 -33 29 c-31 28 -37 29 -127 29
-52 0 -95 3 -94 8 0 4 46 43 101 86 56 44 135 108 177 142 42 35 245 199 451
365 206 167 416 336 465 376 50 40 95 72 102 70 6 -1 145 -110 308 -242z"/>
<path d="M2113 3000 c-47 -21 -95 -85 -115 -155 -7 -22 -12 -92 -11 -155 0
-121 18 -214 68 -368 37 -110 55 -215 55 -307 -1 -81 -20 -157 -41 -164 -48
-16 -66 -94 -29 -131 56 -56 155 6 199 125 17 45 21 78 21 173 -1 129 -14 200
-75 402 -31 104 -38 144 -42 241 -6 137 3 176 53 214 29 22 34 32 34 66 0 34
-5 42 -32 59 -40 24 -33 24 -85 0z"/>
<path d="M2558 3006 c-86 -38 -129 -126 -136 -276 -5 -124 11 -225 63 -386 59
-182 77 -324 54 -424 -7 -32 -21 -55 -49 -81 -48 -44 -52 -78 -14 -116 63 -63
174 18 209 154 32 123 14 295 -54 512 -47 149 -66 268 -57 357 7 64 23 114 36
114 18 0 60 55 60 79 0 26 -31 71 -50 71 -4 0 -14 2 -22 4 -7 2 -25 -1 -40 -8z"/>
<path d="M2995 3006 c-35 -15 -81 -60 -100 -96 -58 -112 -47 -359 25 -565 41
-117 61 -222 61 -323 0 -114 -10 -147 -57 -185 -44 -37 -47 -85 -8 -116 33
-26 60 -26 100 -2 82 50 117 140 117 301 0 130 -10 188 -59 342 -45 138 -64
240 -64 335 0 99 15 147 57 179 77 58 16 168 -72 130z"/>
</g>
</svg>
